<?xml version="1.0" standalone="no"?>
<!DOCTYPE svg PUBLIC "-//W3C//DTD SVG 20010904//EN"
 "http://www.w3.org/TR/2001/REC-SVG-20010904/DTD/svg10.dtd">
<svg version="1.0" xmlns="http://www.w3.org/2000/svg"
 width="512.000000pt" height="512.000000pt" viewBox="0 0 512.000000 512.000000"
 preserveAspectRatio="xMidYMid meet">
<metadata>
Created by potrace 1.16, written by Peter Selinger 2001-2019
</metadata>
<g transform="translate(0.000000,512.000000) scale(0.100000,-0.100000)"
fill="#000000" stroke="none">
<path d="M1495 5043 c-457 -59 -868 -314 -1127 -698 -415 -616 -334 -1390 201
-1926 225 -224 455 -353 771 -432 83 -20 110 -21 1140 -26 l1055 -6 52 -24
c62 -27 125 -92 156 -159 17 -38 21 -66 22 -152 0 -93 -3 -112 -26 -160 -34
-74 -76 -120 -136 -150 l-48 -25 -877 -3 -878 -2 0 -606 0 -605 933 4 932 3
105 26 c620 153 1117 679 1226 1298 19 112 19 330 -1 445 -35 197 -139 435
-273 625 -86 122 -280 316 -402 402 -169 120 -372 214 -560 261 -83 20 -111
21 -1130 26 l-1045 6 -56 26 c-120 57 -182 156 -187 304 -3 73 0 101 17 146
27 72 75 127 142 164 l54 30 883 3 882 2 0 605 0 605 -897 -1 c-494 -1 -911
-4 -928 -6z"/>
<path d="M3780 4445 l0 -605 343 0 c391 0 433 6 565 70 113 56 203 147 260
261 23 46 46 107 53 134 17 74 15 220 -5 294 -54 208 -224 378 -431 431 -71
18 -111 20 -432 20 l-353 0 0 -605z"/>
<path d="M593 1269 c-69 -12 -145 -42 -209 -85 -296 -197 -341 -702 -85 -954
78 -77 142 -113 247 -140 70 -18 111 -20 436 -20 l358 0 0 605 0 605 -347 -1
c-192 -1 -371 -5 -400 -10z"/>
</g>
</svg>
